<svg width="28" height="28" viewBox="0 0 28 28" fill="none" xmlns="http://www.w3.org/2000/svg">
<path d="M28 5.3162C26.9698 5.77309 25.8626 6.08188 24.7006 6.22076C25.8867 5.50977 26.7975 4.384 27.2264 3.04263C26.1165 3.70087 24.8871 4.17896 23.5786 4.43664C22.5307 3.32018 21.0377 2.62251 19.3855 2.62251C16.2129 2.62251 13.6408 5.19453 13.6408 8.36692C13.6408 8.81715 13.6917 9.2556 13.7896 9.67603C9.01533 9.43647 4.7825 7.14948 1.94922 3.67404C1.45474 4.52247 1.17145 5.50926 1.17145 6.56201C1.17145 8.55496 2.1857 10.3133 3.72709 11.3434C2.78535 11.3136 1.89965 11.0552 1.12506 10.6249C1.12465 10.6489 1.12465 10.673 1.12465 10.6971C1.12465 13.4804 3.1048 15.8022 5.73273 16.3299C5.25065 16.4612 4.74317 16.5314 4.2192 16.5314C3.84907 16.5314 3.48917 16.4954 3.13849 16.4283C3.86945 18.7106 5.99093 20.3714 8.50467 20.4178C6.53866 21.9585 4.06168 22.8769 1.37035 22.8769C0.906705 22.8769 0.449409 22.8497 0 22.7967C2.54221 24.4265 5.5618 25.3775 8.80588 25.3775C19.3721 25.3775 25.1501 16.6242 25.1501 9.03305C25.1501 8.78397 25.1446 8.53622 25.1335 8.2899C26.2558 7.47998 27.2298 6.4682 28 5.3162Z" fill="white"/>
</svg>
